<svg width="18" height="18" viewBox="0 0 18 18" fill="none" xmlns="http://www.w3.org/2000/svg">
<path fill-rule="evenodd" clip-rule="evenodd" d="M8.99996 17.3334C13.6025 17.3334 17.3333 13.6026 17.3333 9.00008C17.3333 4.39758 13.6025 0.666748 8.99996 0.666748C4.39746 0.666748 0.666626 4.39758 0.666626 9.00008C0.666626 13.6026 4.39746 17.3334 8.99996 17.3334ZM4.91163 14.2667L14.2666 4.91175C15.2637 6.19439 15.7582 7.79699 15.657 9.41846C15.5559 11.0399 14.8661 12.5687 13.7173 13.7174C12.5685 14.8662 11.0398 15.556 9.41834 15.6571C7.79687 15.7583 6.19427 15.2639 4.91163 14.2667ZM3.73329 13.0884C2.73618 11.8058 2.24176 10.2032 2.34291 8.5817C2.44405 6.96023 3.13381 5.4315 4.28259 4.28272C5.43138 3.13393 6.96011 2.44418 8.58158 2.34303C10.203 2.24188 11.8057 2.73631 13.0883 3.73341L3.73329 13.0884Z" fill="#E6E6E6"/>
</svg>
