<svg width="20" height="20" viewBox="0 0 20 20" fill="none" xmlns="http://www.w3.org/2000/svg">
<path d="M9.16662 3.33331H3.33329C2.89126 3.33331 2.46734 3.50891 2.15478 3.82147C1.84222 4.13403 1.66663 4.55795 1.66663 4.99998V16.6666C1.66663 17.1087 1.84222 17.5326 2.15478 17.8452C2.46734 18.1577 2.89126 18.3333 3.33329 18.3333H15C15.442 18.3333 15.8659 18.1577 16.1785 17.8452C16.491 17.5326 16.6666 17.1087 16.6666 16.6666V10.8333" stroke="#EB5757" stroke-linecap="round" stroke-linejoin="round"/>
<path d="M15.4166 2.08332C15.7481 1.7518 16.1978 1.56555 16.6666 1.56555C17.1355 1.56555 17.5851 1.7518 17.9166 2.08332C18.2481 2.41484 18.4344 2.86448 18.4344 3.33332C18.4344 3.80216 18.2481 4.2518 17.9166 4.58332L9.99996 12.5L6.66663 13.3333L7.49996 9.99999L15.4166 2.08332Z" stroke="#EB5757" stroke-linecap="round" stroke-linejoin="round"/>
</svg>
