<svg width="20" height="21" viewBox="0 0 20 21" fill="none" xmlns="http://www.w3.org/2000/svg">
<path d="M18.2252 10.4999C18.2252 15.0427 14.5426 18.7253 9.9998 18.7253C5.45705 18.7253 1.77441 15.0427 1.77441 10.4999C1.77441 5.95717 5.45705 2.27454 9.9998 2.27454C14.5426 2.27454 18.2252 5.95717 18.2252 10.4999Z" fill="white" stroke="#206CFF" stroke-width="2"/>
<path d="M10.0002 15.0779C9.57262 15.0779 9.22559 14.7316 9.22559 14.3033V6.55732C9.22559 6.12975 9.57262 5.78271 10.0002 5.78271C10.4278 5.78271 10.7748 6.12975 10.7748 6.55732V14.3033C10.7748 14.7316 10.4278 15.0779 10.0002 15.0779Z" fill="#206CFF"/>
<path d="M13.8731 11.205H6.12715C5.69957 11.205 5.35254 10.8579 5.35254 10.4304C5.35254 10.0028 5.69957 9.65576 6.12715 9.65576H13.8731C14.3014 9.65576 14.6477 10.0028 14.6477 10.4304C14.6477 10.8579 14.3014 11.205 13.8731 11.205Z" fill="#206CFF"/>
</svg>
